<?xml version="1.0" encoding="utf-8"?>
<svg version="1.1" id="Layer_1" xmlns="http://www.w3.org/2000/svg" xmlns:xlink="http://www.w3.org/1999/xlink" x="0px" y="0px"
	 viewBox="0 0 1638.099 1638.099" enable-background="new 0 0 1638.099 1638.099" xml:space="preserve">
<g>
	<g>
		<g>
			<line fill="none" stroke="#000000" stroke-miterlimit="10" x1="819.049" y1="19.049" x2="819.049" y2="19.049"/>
			<path fill="none" stroke="#000000" stroke-miterlimit="10" d="M593.663,1586.644c0,0,30.196,0,66.014,0
				c46.679,0,101.038,0,159.372,0s112.693,0,159.372,0c35.818,0,66.014,0,66.014,0"/>
			<path fill="none" stroke="#000000" stroke-miterlimit="10" d="M386.537,1492.052c0,0,14.738,0,32.923,0
				c25.023,0,56.454,0,93.757,0c89.576,0,193.89,0,305.833,0s216.256,0,305.833,0c37.303,0,68.734,0,93.757,0
				c18.186,0,32.923,0,32.923,0"/>
			<path fill="none" stroke="#000000" stroke-miterlimit="10" d="M214.45,1342.938c0,0,20.601,0,46.022,0
				c34.979,0,78.916,0,131.061,0c59.46,0,125.217,0,196.146,0c74.888,0,152.454,0,231.37,0s156.482,0,231.37,0
				c70.93,0,136.687,0,196.146,0c52.145,0,96.082,0,131.061,0c25.421,0,46.022,0,46.022,0"/>
			<path fill="none" stroke="#000000" stroke-miterlimit="10" d="M91.344,1151.381c0,0,24.796,0,55.393,0
				c42.101,0,94.985,0,157.747,0c71.566,0,150.713,0,236.085,0c90.137,0,183.496,0,278.481,0s188.344,0,278.481,0
				c85.372,0,164.518,0,236.085,0c62.762,0,115.646,0,157.747,0c30.597,0,55.393,0,55.393,0"/>
			<path fill="none" stroke="#000000" stroke-miterlimit="10" d="M27.192,932.901c0,0,26.982,0,60.277,0
				c45.812,0,103.358,0,171.653,0c77.875,0,163.999,0,256.897,0c98.083,0,199.673,0,303.031,0s204.948,0,303.031,0
				c92.898,0,179.021,0,256.897,0c68.295,0,125.841,0,171.653,0c33.295,0,60.276,0,60.276,0"/>
			<path fill="none" stroke="#000000" stroke-miterlimit="10" d="M27.192,705.198c0,0,26.982,0,60.277,0
				c45.812,0,103.358,0,171.653,0c77.875,0,163.999,0,256.897,0c98.083,0,199.673,0,303.031,0s204.948,0,303.031,0
				c92.898,0,179.021,0,256.897,0c68.295,0,125.841,0,171.653,0c33.295,0,60.276,0,60.276,0"/>
			<path fill="none" stroke="#000000" stroke-miterlimit="10" d="M91.344,486.717c0,0,24.796,0,55.393,0
				c42.101,0,94.985,0,157.747,0c71.566,0,150.713,0,236.085,0c90.137,0,183.496,0,278.481,0s188.344,0,278.481,0
				c85.372,0,164.518,0,236.085,0c62.762,0,115.646,0,157.747,0c30.597,0,55.393,0,55.393,0"/>
			<path fill="none" stroke="#000000" stroke-miterlimit="10" d="M214.45,295.161c0,0,20.601,0,46.022,0
				c34.979,0,78.916,0,131.061,0c59.46,0,125.217,0,196.146,0c74.888,0,152.454,0,231.37,0s156.482,0,231.37,0
				c70.93,0,136.687,0,196.146,0c52.145,0,96.082,0,131.061,0c25.421,0,46.022,0,46.022,0"/>
			<path fill="none" stroke="#000000" stroke-miterlimit="10" d="M386.537,146.047c0,0,14.738,0,32.923,0
				c25.023,0,56.454,0,93.757,0c89.576,0,193.89,0,305.833,0s216.256,0,305.833,0c37.303,0,68.734,0,93.757,0
				c18.186,0,32.923,0,32.923,0"/>
			<path fill="none" stroke="#000000" stroke-miterlimit="10" d="M593.663,51.455c0,0,30.196,0,66.014,0
				c46.679,0,101.038,0,159.372,0s112.693,0,159.372,0c35.818,0,66.014,0,66.014,0"/>
			<line fill="none" stroke="#000000" stroke-miterlimit="10" x1="819.049" y1="1619.049" x2="819.049" y2="1619.049"/>
			<path fill="none" stroke="#000000" stroke-miterlimit="10" d="M819.049,19.049c-208.842,0.082-417.954,86.699-565.685,234.315
				C105.749,401.096,19.132,610.208,19.049,819.049c0.082,208.842,86.699,417.954,234.315,565.685
				c147.732,147.616,356.844,234.233,565.685,234.315"/>
			<path fill="none" stroke="#000000" stroke-miterlimit="10" d="M819.049,19.049c200.529,0.082,401.782,87.488,542.771,234.315
				c142.389,148.517,224.745,356.985,224.823,565.685c-0.079,208.701-82.434,417.168-224.823,565.685
				c-140.99,146.826-342.242,234.233-542.771,234.315"/>
			<path fill="none" stroke="#000000" stroke-miterlimit="10" d="M819.049,19.049c176.306,0.082,354.381,89.996,475.885,234.315
				c126.894,150.958,197.049,357.364,197.118,565.685c-0.069,208.321-70.224,414.727-197.118,565.685
				c-121.504,144.319-299.579,234.232-475.885,234.315"/>
			<path fill="none" stroke="#000000" stroke-miterlimit="10" d="M819.049,19.049c138.305,0.083,278.828,94.522,370.445,234.315
				c101.529,155.161,153.39,357.862,153.443,565.685c-0.053,207.823-51.914,410.524-153.443,565.685
				c-91.617,139.793-232.14,234.232-370.445,234.315"/>
			<path fill="none" stroke="#000000" stroke-miterlimit="10" d="M819.049,19.049c43.915,0.021,89.524,23.372,127.178,60.896
				c42.841,42.741,78.518,102.917,107.816,173.418c32.112,77.332,55.786,165.125,72.041,259.539
				c16.961,98.624,25.289,201.687,25.297,306.147c-0.008,104.46-8.336,207.523-25.297,306.147
				c-16.255,94.413-39.928,182.206-72.041,259.539c-29.299,70.501-64.975,130.677-107.816,173.418
				c-37.654,37.525-83.263,60.876-127.178,60.896"/>
			<path fill="none" stroke="#000000" stroke-miterlimit="10" d="M819.049,19.049c16.361,0.023,31.712,26.404,43.569,60.896
				c15.645,45.561,27.084,104.216,36.936,173.418c11.167,78.496,19.14,165.618,24.68,259.539
				c5.835,99.035,8.664,201.721,8.666,306.147c-0.003,104.425-2.832,207.111-8.666,306.147
				c-5.54,93.921-13.513,181.042-24.68,259.539c-9.852,69.202-21.291,127.858-36.936,173.418
				c-11.857,34.492-27.208,60.874-43.569,60.896"/>
			<path fill="none" stroke="#000000" stroke-miterlimit="10" d="M819.049,19.049c-16.361,0.023-31.712,26.404-43.569,60.896
				c-15.645,45.561-27.084,104.216-36.936,173.418c-11.167,78.496-19.14,165.618-24.68,259.539
				c-5.835,99.035-8.664,201.721-8.666,306.147c0.003,104.425,2.832,207.111,8.666,306.147
				c5.54,93.921,13.513,181.042,24.68,259.539c9.852,69.202,21.291,127.858,36.936,173.418
				c11.857,34.492,27.208,60.874,43.569,60.896"/>
			<path fill="none" stroke="#000000" stroke-miterlimit="10" d="M819.049,19.049c-43.915,0.021-89.524,23.372-127.178,60.896
				c-42.841,42.741-78.518,102.917-107.816,173.418c-32.112,77.332-55.786,165.125-72.041,259.539
				c-16.961,98.624-25.289,201.687-25.297,306.147c0.009,104.46,8.336,207.523,25.297,306.147
				c16.255,94.413,39.928,182.206,72.041,259.539c29.299,70.501,64.975,130.677,107.816,173.418
				c37.654,37.525,83.263,60.876,127.178,60.896"/>
			<path fill="none" stroke="#000000" stroke-miterlimit="10" d="M819.049,19.049c-138.305,0.083-278.828,94.522-370.445,234.315
				c-101.529,155.161-153.39,357.862-153.443,565.685c0.053,207.823,51.914,410.524,153.443,565.685
				c91.617,139.793,232.14,234.232,370.445,234.315"/>
			<path fill="none" stroke="#000000" stroke-miterlimit="10" d="M819.049,19.049c-176.306,0.082-354.381,89.996-475.885,234.315
				C216.27,404.322,146.115,610.728,146.047,819.049c0.069,208.321,70.224,414.727,197.118,565.685
				c121.504,144.319,299.579,234.232,475.885,234.315"/>
			<path fill="none" stroke="#000000" stroke-miterlimit="10" d="M819.049,19.049c-200.529,0.082-401.782,87.488-542.771,234.315
				C133.889,401.881,51.534,610.349,51.455,819.049c0.079,208.701,82.434,417.168,224.823,565.685
				c140.99,146.826,342.242,234.233,542.771,234.315"/>
			<path fill="none" stroke="#000000" stroke-miterlimit="10" d="M819.049,19.049c208.842,0.082,417.954,86.699,565.685,234.315
				c147.616,147.732,234.233,356.844,234.315,565.685c-0.082,208.842-86.699,417.954-234.315,565.685
				c-147.731,147.616-356.844,234.233-565.685,234.315"/>
		</g>
	</g>
</g>
</svg>
